<svg width="74" height="63" viewBox="0 0 74 63" fill="none" xmlns="http://www.w3.org/2000/svg">
<g filter="url(#filter0_d_6_21)">
<path d="M5.56 55V40H7.86V47.55H10.21V40H12.51V55H10.21V49.85H7.86V55H5.56ZM21.7881 40V42.3H17.9381V46.05H21.2481V48.35H17.9381V52.7H21.7881V55H15.6381V40H21.7881ZM24.2123 55V40H27.9123C28.999 40 29.8623 40.33 30.5023 40.99C31.1423 41.6433 31.4623 42.5133 31.4623 43.6V45.87C31.4623 46.5767 31.3223 47.1967 31.0423 47.73C30.7623 48.2633 30.3623 48.6867 29.8423 49L29.6823 48.27C30.249 48.4767 30.6857 48.79 30.9923 49.21C31.3057 49.63 31.4623 50.1333 31.4623 50.72V55H29.1623V50.72C29.1623 50.3467 29.0523 50.0467 28.8323 49.82C28.6123 49.5867 28.3057 49.47 27.9123 49.47H26.5123V55H24.2123ZM26.5123 47.17H27.9123C28.3057 47.17 28.6123 47.0533 28.8323 46.82C29.0523 46.58 29.1623 46.2633 29.1623 45.87V43.6C29.1623 43.2067 29.0523 42.8933 28.8323 42.66C28.6123 42.42 28.3057 42.3 27.9123 42.3H26.5123V47.17ZM36.6491 55H34.3491V40H36.6491V55ZM40.8088 55V42.3H38.4788V40H45.4288V42.3H43.1088V55H40.8088ZM45.7081 55L48.6881 40H51.1681L54.1081 55H51.7481L51.3081 52.44H48.5181L48.0681 55H45.7081ZM48.8781 50.14H50.9481L49.7681 43.14H50.0881L48.8781 50.14ZM59.1853 55.32C58.0786 55.32 57.192 54.98 56.5253 54.3C55.8653 53.62 55.5353 52.7267 55.5353 51.62V43.38C55.5353 42.2667 55.8653 41.3733 56.5253 40.7C57.192 40.02 58.0786 39.68 59.1853 39.68C60.2986 39.68 61.1853 40.02 61.8453 40.7C62.5053 41.3733 62.8353 42.2667 62.8353 43.38V44.08H60.5353V43.38C60.5353 42.96 60.4153 42.6233 60.1753 42.37C59.9353 42.11 59.6053 41.98 59.1853 41.98C58.7653 41.98 58.4353 42.11 58.1953 42.37C57.9553 42.6233 57.8353 42.96 57.8353 43.38V51.62C57.8353 52.04 57.9553 52.38 58.1953 52.64C58.4353 52.8933 58.7653 53.02 59.1853 53.02C59.6053 53.02 59.9353 52.8933 60.1753 52.64C60.4153 52.38 60.5353 52.04 60.5353 51.62V49.9H59.0253V47.6H62.8353V51.62C62.8353 52.7267 62.5053 53.62 61.8453 54.3C61.1853 54.98 60.2986 55.32 59.1853 55.32ZM71.6709 40V42.3H67.8209V46.05H71.1309V48.35H67.8209V52.7H71.6709V55H65.5209V40H71.6709Z" fill="white"/>
</g>
<g filter="url(#filter1_d_6_21)">
<path d="M22.9019 4.50001C24.0566 2.50001 26.9434 2.5 28.0981 4.5L44.9856 33.75C46.1403 35.75 44.6969 38.25 42.3875 38.25H8.61251C6.30311 38.25 4.85973 35.75 6.01443 33.75L22.9019 4.50001Z" fill="#FFB410"/>
</g>
<g filter="url(#filter2_d_6_21)">
<path d="M51.17 37V25.75H55.7825V27.475H52.895V31.4125H55.3775V33.1375H52.895V37H51.17ZM57.337 37V25.75H60.112C60.927 25.75 61.5745 25.9975 62.0545 26.4925C62.5345 26.9825 62.7745 27.635 62.7745 28.45V30.1525C62.7745 30.6825 62.6695 31.1475 62.4595 31.5475C62.2495 31.9475 61.9495 32.265 61.5595 32.5L61.4395 31.9525C61.8645 32.1075 62.192 32.3425 62.422 32.6575C62.657 32.9725 62.7745 33.35 62.7745 33.79V37H61.0495V33.79C61.0495 33.51 60.967 33.285 60.802 33.115C60.637 32.94 60.407 32.8525 60.112 32.8525H59.062V37H57.337ZM59.062 31.1275H60.112C60.407 31.1275 60.637 31.04 60.802 30.865C60.967 30.685 61.0495 30.4475 61.0495 30.1525V28.45C61.0495 28.155 60.967 27.92 60.802 27.745C60.637 27.565 60.407 27.475 60.112 27.475H59.062V31.1275ZM67.512 37.24C66.682 37.24 66.017 36.985 65.517 36.475C65.022 35.965 64.7745 35.295 64.7745 34.465V28.285C64.7745 27.45 65.022 26.78 65.517 26.275C66.017 25.765 66.682 25.51 67.512 25.51C68.347 25.51 69.012 25.765 69.507 26.275C70.002 26.78 70.2495 27.45 70.2495 28.285V34.465C70.2495 35.295 70.002 35.965 69.507 36.475C69.012 36.985 68.347 37.24 67.512 37.24ZM67.512 35.515C67.827 35.515 68.0745 35.42 68.2545 35.23C68.4345 35.035 68.5245 34.78 68.5245 34.465V28.285C68.5245 27.97 68.4345 27.7175 68.2545 27.5275C68.0745 27.3325 67.827 27.235 67.512 27.235C67.197 27.235 66.9495 27.3325 66.7695 27.5275C66.5895 27.7175 66.4995 27.97 66.4995 28.285V34.465C66.4995 34.78 66.5895 35.035 66.7695 35.23C66.9495 35.42 67.197 35.515 67.512 35.515Z" fill="white"/>
</g>
<defs>
<filter id="filter0_d_6_21" x="3.56" y="38.68" width="70.1109" height="19.64" filterUnits="userSpaceOnUse" color-interpolation-filters="sRGB">
<feFlood flood-opacity="0" result="BackgroundImageFix"/>
<feColorMatrix in="SourceAlpha" type="matrix" values="0 0 0 0 0 0 0 0 0 0 0 0 0 0 0 0 0 0 127 0" result="hardAlpha"/>
<feOffset dy="1"/>
<feGaussianBlur stdDeviation="1"/>
<feComposite in2="hardAlpha" operator="out"/>
<feColorMatrix type="matrix" values="0 0 0 0 0 0 0 0 0 0 0 0 0 0 0 0 0 0 0.87 0"/>
<feBlend mode="normal" in2="BackgroundImageFix" result="effect1_dropShadow_6_21"/>
<feBlend mode="normal" in="SourceGraphic" in2="effect1_dropShadow_6_21" result="shape"/>
</filter>
<filter id="filter1_d_6_21" x="3.60803" y="2" width="43.7839" height="39.25" filterUnits="userSpaceOnUse" color-interpolation-filters="sRGB">
<feFlood flood-opacity="0" result="BackgroundImageFix"/>
<feColorMatrix in="SourceAlpha" type="matrix" values="0 0 0 0 0 0 0 0 0 0 0 0 0 0 0 0 0 0 127 0" result="hardAlpha"/>
<feOffset dy="1"/>
<feGaussianBlur stdDeviation="1"/>
<feComposite in2="hardAlpha" operator="out"/>
<feColorMatrix type="matrix" values="0 0 0 0 0 0 0 0 0 0 0 0 0 0 0 0 0 0 0.87 0"/>
<feBlend mode="normal" in2="BackgroundImageFix" result="effect1_dropShadow_6_21"/>
<feBlend mode="normal" in="SourceGraphic" in2="effect1_dropShadow_6_21" result="shape"/>
</filter>
<filter id="filter2_d_6_21" x="49.17" y="24.51" width="23.0796" height="15.73" filterUnits="userSpaceOnUse" color-interpolation-filters="sRGB">
<feFlood flood-opacity="0" result="BackgroundImageFix"/>
<feColorMatrix in="SourceAlpha" type="matrix" values="0 0 0 0 0 0 0 0 0 0 0 0 0 0 0 0 0 0 127 0" result="hardAlpha"/>
<feOffset dy="1"/>
<feGaussianBlur stdDeviation="1"/>
<feComposite in2="hardAlpha" operator="out"/>
<feColorMatrix type="matrix" values="0 0 0 0 0 0 0 0 0 0 0 0 0 0 0 0 0 0 0.87 0"/>
<feBlend mode="normal" in2="BackgroundImageFix" result="effect1_dropShadow_6_21"/>
<feBlend mode="normal" in="SourceGraphic" in2="effect1_dropShadow_6_21" result="shape"/>
</filter>
</defs>
</svg>
